<svg id="Capa_1" fill='#E62720' enable-background="new 0 0 512 512" height="512" viewBox="0 0 512 512" width="512" xmlns="http://www.w3.org/2000/svg"><g><path d="m100.927 54.729c-4.292 0-6.777 2.41-6.777 7.53v19.955c0 5.121 2.485 7.53 6.702 7.53s6.777-2.41 6.777-7.53v-2.56h-4.443c-2.259 0-3.539-2.184-3.539-4.518 0-2.184 1.28-4.518 3.539-4.518h12.651c2.259 0 3.539 1.732 3.539 3.69v7.907c0 12.952-8.132 17.771-18.524 17.771s-18.449-4.819-18.449-17.771v-19.956c0-12.952 8.208-17.771 18.073-17.771 10.768 0 18.9 5.422 18.9 14.985 0 4.518-1.882 5.572-5.874 5.572-3.163 0-5.798-.828-5.873-3.539s-.301-6.777-6.702-6.777z"/><path d="m142.271 77.018c0-.452-.15-.828-.301-1.054l-15.588-25.829c-.15-.301-.15-.603-.15-.828 0-2.786 4.744-4.819 7.982-4.819 1.883 0 2.56.753 3.389 2.184l10.543 19.352 10.467-19.352c.753-1.431 1.506-2.184 3.389-2.184 3.238 0 7.982 2.033 7.982 4.819 0 .226 0 .527-.15.828l-15.513 25.829c-.15.226-.301.603-.301 1.054v18.901c0 2.41-2.937 3.615-5.874 3.615s-5.874-1.205-5.874-3.615v-18.901z"/><path d="m205.452 80.03c-.979 1.657-2.485 2.184-3.916 2.184-1.355 0-2.786-.452-3.689-2.184l-7.154-13.103v28.991c0 2.41-2.937 3.615-5.874 3.615s-5.874-1.205-5.874-3.615v-45.557c0-4.292 2.936-5.874 5.874-5.874 4.217 0 6.024.452 9.111 5.874l7.756 13.554 7.756-13.554c3.087-5.422 4.895-5.874 9.112-5.874 3.012 0 5.873 1.581 5.873 5.874v45.558c0 2.41-2.937 3.615-5.873 3.615-2.937 0-5.874-1.205-5.874-3.615v-28.238z"/><path d="m231.115 393.705c4.142 0 7.5-3.358 7.5-7.5v-16.499c0-4.142-3.358-7.5-7.5-7.5s-7.5 3.358-7.5 7.5v16.499c0 4.142 3.358 7.5 7.5 7.5z"/><path d="m281.408 393.705c4.142 0 7.5-3.358 7.5-7.5v-16.499c0-4.142-3.358-7.5-7.5-7.5s-7.5 3.358-7.5 7.5v16.499c0 4.142 3.358 7.5 7.5 7.5z"/><path d="m512 154.499c0-12.986-10.565-23.551-23.551-23.551h-21.125v-107.738c0-12.798-10.412-23.21-23.21-23.21h-372.228c-12.798 0-23.21 10.412-23.21 23.21v107.738h-25.125c-12.986 0-23.551 10.565-23.551 23.551 0 11.558 8.371 21.191 19.368 23.171v166.204c0 4.142 3.358 7.5 7.5 7.5s7.5-3.358 7.5-7.5v-165.824h443.265v75.341c0 4.142 3.358 7.5 7.5 7.5s7.5-3.358 7.5-7.5v-75.72c10.995-1.981 19.367-11.614 19.367-23.172zm-448.325-131.289c0-4.527 3.683-8.21 8.21-8.21h372.229c4.527 0 8.21 3.683 8.21 8.21v107.738h-388.649zm424.774 139.84h-464.898c-4.715 0-8.551-3.836-8.551-8.551s3.836-8.551 8.551-8.551h464.898c4.715 0 8.551 3.836 8.551 8.551 0 4.716-3.836 8.551-8.551 8.551z"/><path d="m485.132 275.891c-4.142 0-7.5 3.358-7.5 7.5v130.849h-103.09c-.009 0-.018.001-.028.001v-170.966c0-4.142-3.358-7.5-7.5-7.5h-111.014-111.015c-4.142 0-7.5 3.358-7.5 7.5v170.965h-103.117v-40.365c0-4.142-3.358-7.5-7.5-7.5s-7.5 3.358-7.5 7.5v126.056c0 4.142 3.358 7.5 7.5 7.5h458.265c4.142 0 7.5-3.358 7.5-7.5v-216.54c-.001-4.142-3.359-7.5-7.501-7.5zm-7.5 176.445h-14.942v-23.096h14.942zm-103.117 15h47.539v25.096h-47.539zm29.66-15v-23.096h43.515v23.095h-43.515zm-29.633-23.096h14.633v23.095h-14.661v-23.097c.01.001.019.002.028.002zm-15.027 63.191h-96.015v-241.656h96.015zm-207.03-241.656h96.015v241.656h-96.015zm-87.764 201.561v-23.096h43.515v23.095h-43.515zm72.764 15v25.096h-39.886v-25.096zm0-15h-14.249v-23.096h14.249zm-87.764-23.096v23.095h-15.353v-23.095zm-15.353 38.096h48.231v25.096h-48.231zm402.685 25.095v-25.096h40.579v25.096z"/><path d="m264.825 93.799h5.741v7.975c0 9.457 7.694 17.15 17.15 17.15h8.973c9.456 0 17.15-7.694 17.15-17.15v-7.975h52.671v7.975c0 9.457 7.694 17.15 17.151 17.15h8.973c9.457 0 17.15-7.694 17.15-17.15v-7.975h5.741c11.207 0 20.325-9.118 20.325-20.325s-9.118-20.325-20.325-20.325h-5.741v-7.975c0-9.457-7.694-17.15-17.15-17.15h-8.973c-9.457 0-17.151 7.694-17.151 17.15v7.975h-52.671v-7.975c0-9.457-7.694-17.15-17.15-17.15h-8.973c-9.456 0-17.15 7.694-17.15 17.15v7.975h-5.741c-11.208 0-20.325 9.118-20.325 20.325 0 11.208 9.118 20.325 20.325 20.325zm145.375-25.65h5.325c2.936 0 5.325 2.389 5.325 5.325s-2.389 5.325-5.325 5.325h-5.325zm-28.69-22.975c0-1.186.965-2.15 2.151-2.15h8.973c1.185 0 2.15.965 2.15 2.15v56.601c0 1.186-.965 2.15-2.15 2.15h-8.973c-1.186 0-2.151-.965-2.151-2.15v-15.476-25.65zm-15 22.975v10.65h-52.671v-10.65zm-80.944-22.975c0-1.186.965-2.15 2.15-2.15h8.973c1.185 0 2.15.965 2.15 2.15v15.475 25.65 15.475c0 1.186-.965 2.15-2.15 2.15h-8.973c-1.185 0-2.15-.965-2.15-2.15zm-20.741 22.975h5.325v10.65h-5.325c-2.936 0-5.325-2.389-5.325-5.325s2.389-5.325 5.325-5.325z"/></g></svg>